HIERARCHY
ROOT Hips
{
	OFFSET 0.00 0.00 0.00
	CHANNELS 6 Xposition Yposition Zposition Xrotation Yrotation Zrotation
	JOINT Spine
	{
		OFFSET 0.00000 7.50895 0.00000
		CHANNELS 3 Xrotation Yrotation Zrotation
		JOINT Head
		{
			OFFSET 0.00000 13.86115 0.00000
			CHANNELS 3 Xrotation Yrotation Zrotation
			End Site
			{
				OFFSET 0.00000 4.52755 0.00000
			}
		}
		JOINT LeftShoulder
		{
			OFFSET 0.00000 8.20478 0.00000
			CHANNELS 3 Xrotation Yrotation Zrotation
			JOINT LeftArm
			{
				OFFSET 6.63596 0.00000 0.00000
				CHANNELS 3 Xrotation Yrotation Zrotation
				JOINT LeftForeArm
				{
					OFFSET 10.27422 0.00000 0.00000
					CHANNELS 3 Yrotation Zrotation Xrotation
					JOINT LeftHand
					{
						OFFSET 8.52215 0.00000 0.00000
						CHANNELS 3 Xrotation Yrotation Zrotation
						JOINT LeftHandThumb1
						{
							OFFSET 0.00000 0.00000 0.00000
							CHANNELS 3 Xrotation Zrotation Yrotation
							End Site
							{
								OFFSET 0.00000 0.00000 3.93700
							}
						}
						End Site
						{
							OFFSET 3.93700 0.00000 0.00000
						}
					}
				}
			}
		}
		JOINT RightShoulder
		{
			OFFSET 0.00000 8.20478 0.00000
			CHANNELS 3 Xrotation Yrotation Zrotation
			JOINT RightArm
			{
				OFFSET -6.63596 0.00000 0.00000
				CHANNELS 3 Xrotation Yrotation Zrotation
				JOINT RightForeArm
				{
					OFFSET -10.27422 0.00000 0.00000
					CHANNELS 3 Yrotation Zrotation Xrotation
					JOINT RightHand
					{
						OFFSET -8.52215 0.00000 0.00000
						CHANNELS 3 Xrotation Yrotation Zrotation
						JOINT RightHandThumb1
						{
							OFFSET 0.00000 0.00000 0.00000
							CHANNELS 3 Xrotation Zrotation Yrotation
							End Site
							{
								OFFSET 0.00000 0.00000 3.93700
							}
						}
						End Site
						{
							OFFSET -3.93700 0.00000 0.00000
						}
					}
				}
			}
		}
	}
	JOINT LeftUpLeg
	{
		OFFSET 3.00056 0.00000 0.00000
		CHANNELS 3 Xrotation Yrotation Zrotation
		JOINT LeftLeg
		{
			OFFSET 0.00000 -16.49085 0.00000
			CHANNELS 3 Xrotation Yrotation Zrotation
			JOINT LeftFoot
			{
				OFFSET 0.00000 -14.55658 0.00000
				CHANNELS 3 Xrotation Yrotation Zrotation
				JOINT LeftToeBase
				{
					OFFSET 0.00000 -1.25038 4.66650
					CHANNELS 3 Xrotation Yrotation Zrotation
					End Site
					{
						OFFSET 0.00000 0.00000 2.95275
					}
				}
			}
		}
	}
	JOINT RightUpLeg
	{
		OFFSET -3.00056 0.00000 0.00000
		CHANNELS 3 Xrotation Yrotation Zrotation
		JOINT RightLeg
		{
			OFFSET 0.00000 -16.49085 0.00000
			CHANNELS 3 Xrotation Yrotation Zrotation
			JOINT RightFoot
			{
				OFFSET 0.00000 -14.55658 0.00000
				CHANNELS 3 Xrotation Yrotation Zrotation
				JOINT RightToeBase
				{
					OFFSET 0.00000 -1.25038 4.66650
					CHANNELS 3 Xrotation Yrotation Zrotation
					End Site
					{
						OFFSET 0.00000 0.00000 2.95275
					}
				}
			}
		}
	}
}
MOTION
Frames: 21
Frame Time: 0.008333
 0.2439 32.8759 -2.9228 13.0374 2.2860 -1.7459 -11.9822 5.2134 1.6884 -11.5529 -7.7071 8.4859 13.5041 21.6093 28.1455 -30.6910 -7.9165 -30.5323 -13.4543 -0.0000 7.3591 1.4740 30.1174 -2.9357 33.1476 -0.0000 26.2537 -21.9178 -7.3874 -39.5143 -3.3860 -11.6508 33.9311 16.8652 -0.0000 28.2668 1.4266 -10.4630 7.8088 32.8623 0.0000 -24.3270 -8.5188 3.5576 2.7878 0.5278 0.0000 -0.0000 -8.5638 15.9299 -13.1750 4.0361 -0.0000 0.0000 -10.0738 -8.8676 -0.2368 3.0500 -0.0000 -0.0000 -9.4272 -0.8158 -3.9888 0.5974 0.0000 0.0000
 0.2442 32.8757 -2.9203 13.0341 2.2923 -1.7396 -11.9862 5.2036 1.6646 -11.5681 -7.7064 8.5044 13.5181 21.6405 28.1471 -30.7643 -7.8745 -30.5423 -13.4958 -0.0000 7.3537 1.5336 30.1724 -3.0493 33.1476 -0.0000 26.2537 -21.9143 -7.3639 -39.5289 -3.3977 -11.7131 33.9566 16.9073 -0.0000 28.3204 1.4401 -10.4715 7.8752 32.8623 0.0000 -24.3270 -8.4980 3.5230 2.7791 0.5055 -0.0000 -0.0000 -8.5575 15.9573 -13.1849 4.0422 0.0000 0.0000 -10.0681 -8.8637 -0.2427 3.0555 -0.0000 -0.0000 -9.4449 -0.8291 -3.9756 0.6251 0.0000 -0.0000
 0.2431 32.8758 -2.9172 13.0343 2.2984 -1.7473 -12.0049 5.2096 1.6621 -11.5542 -7.7164 8.5002 13.5809 21.6382 28.1195 -30.7878 -7.8583 -30.5090 -13.5007 -0.0000 7.3445 1.5330 30.1710 -3.0480 33.1476 -0.0000 26.2537 -21.9088 -7.3627 -39.5157 -3.3962 -11.7030 33.9298 16.8904 -0.0000 28.3031 1.4225 -10.4670 7.7833 32.8623 0.0000 -24.3270 -8.4772 3.4802 2.7867 0.4750 0.0000 -0.0000 -8.5501 15.9819 -13.1456 4.0568 0.0000 0.0000 -10.0549 -8.8597 -0.2330 3.0437 0.0000 -0.0000 -9.4448 -0.8401 -3.9946 0.6378 0.0000 -0.0000
 0.2432 32.8754 -2.9147 13.0334 2.3104 -1.7499 -12.0124 5.2164 1.6485 -11.5684 -7.7322 8.5122 13.5935 21.6512 28.1269 -30.8059 -7.8636 -30.5186 -13.5066 -0.0000 7.3449 1.5157 30.1615 -3.0147 33.1476 -0.0000 26.2537 -21.9020 -7.3697 -39.5382 -3.4094 -11.7474 33.9525 16.9206 -0.0000 28.3329 1.4361 -10.4873 7.8423 32.8623 0.0000 -24.3270 -8.4738 3.4803 2.7883 0.4765 0.0000 0.0000 -8.5334 15.9801 -13.2157 3.9778 -0.0000 0.0000 -10.0456 -8.8628 -0.2312 3.0403 -0.0000 0.0000 -9.4489 -0.8488 -3.9916 0.6221 0.0000 0.0000
 0.2432 32.8756 -2.9122 13.0350 2.3257 -1.7519 -12.0256 5.2102 1.6397 -11.5831 -7.7391 8.5031 13.6097 21.6527 28.1105 -30.7908 -7.8727 -30.4951 -13.5162 -0.0000 7.3253 1.5000 30.1747 -2.9822 33.1476 -0.0000 26.2537 -21.9166 -7.3715 -39.5288 -3.3798 -11.6955 33.9307 16.8795 -0.0000 28.3133 1.4175 -10.4434 7.7738 32.8623 0.0000 -24.3270 -8.4601 3.4257 2.7870 0.4560 0.0000 -0.0000 -8.5426 16.0159 -13.1763 4.0916 0.0000 0.0000 -10.0430 -8.8687 -0.2326 3.0435 -0.0000 0.0000 -9.4511 -0.8594 -3.9841 0.6352 0.0000 0.0000
 0.2441 32.8755 -2.9100 13.0384 2.3363 -1.7506 -12.0394 5.2176 1.6272 -11.5918 -7.7453 8.5069 13.5498 21.6305 28.1341 -30.7588 -7.8666 -30.5021 -13.5189 -0.0000 7.3496 1.5104 30.1393 -3.0062 33.1476 -0.0000 26.2537 -21.9159 -7.3848 -39.5282 -3.3807 -11.6755 33.9158 16.8568 -0.0000 28.3271 1.4194 -10.4589 7.7728 32.8623 0.0000 -24.3270 -8.4464 3.3776 2.7814 0.4321 -0.0000 0.0000 -8.5268 16.0541 -13.1604 4.0249 0.0000 0.0000 -10.0439 -8.8683 -0.2377 3.0491 -0.0000 0.0000 -9.4535 -0.8679 -3.9832 0.5834 -0.0000 -0.0000
 0.2443 32.8750 -2.9081 13.0464 2.3482 -1.7484 -12.0526 5.2205 1.6130 -11.6239 -7.7580 8.5139 13.6300 21.6577 28.0991 -30.8094 -7.8575 -30.4780 -13.5359 -0.0000 7.3136 1.4930 30.1421 -2.9712 33.1476 -0.0000 26.2537 -21.9038 -7.4062 -39.5790 -3.4296 -11.7263 33.9767 16.8904 -0.0000 28.4322 1.4412 -10.5242 7.8428 32.8623 0.0000 -24.3270 -8.4502 3.3623 2.7767 0.4290 0.0000 -0.0000 -8.5199 16.0747 -13.2048 4.0089 -0.0000 0.0000 -10.0489 -8.8579 -0.2412 3.0504 0.0000 -0.0000 -9.4652 -0.8939 -3.9847 0.5867 -0.0000 0.0000
 0.2454 32.8752 -2.9052 13.0436 2.3640 -1.7522 -12.0587 5.2041 1.6033 -11.6437 -7.7523 8.5341 13.6174 21.6427 28.1211 -30.9155 -7.6627 -30.5141 -13.6841 -0.0000 7.4656 1.5488 30.2355 -3.0736 33.1476 -0.0000 26.2537 -21.9068 -7.3892 -39.5657 -3.4139 -11.7246 33.9573 16.8765 -0.0000 28.4171 1.4399 -10.5055 7.8494 32.8623 0.0000 -24.3270 -8.4348 3.3321 2.7763 0.4123 -0.0000 0.0000 -8.5134 16.0860 -13.2124 4.0014 0.0000 -0.0000 -10.0346 -8.8634 -0.2428 3.0414 0.0000 0.0000 -9.4581 -0.9037 -3.9739 0.6273 0.0000 0.0000
 0.2453 32.8750 -2.9028 13.0464 2.3784 -1.7568 -12.0681 5.1928 1.6031 -11.6739 -7.7464 8.5210 13.6024 21.6388 28.1116 -30.9175 -7.6313 -30.5058 -13.6832 -0.0000 7.4707 1.5456 30.2323 -3.0675 33.1476 -0.0000 26.2537 -21.9029 -7.3967 -39.5782 -3.4089 -11.7165 33.9620 16.8800 -0.0000 28.3889 1.4391 -10.4923 7.8547 32.8623 0.0000 -24.3270 -8.4264 3.3005 2.7783 0.3983 -0.0000 -0.0000 -8.5044 16.1101 -13.2230 3.9959 -0.0000 0.0000 -10.0349 -8.8792 -0.2440 3.0502 0.0000 -0.0000 -9.4653 -0.8911 -3.9496 0.5716 0.0000 -0.0000
 0.2459 32.8747 -2.9010 13.0533 2.3945 -1.7596 -12.0807 5.1960 1.6054 -11.7124 -7.7516 8.4769 13.6308 21.6711 28.0743 -30.8406 -7.8346 -30.4731 -13.4568 -0.0000 7.3408 1.4347 30.1277 -2.8566 33.1476 -0.0000 26.2537 -21.9137 -7.3863 -39.6009 -3.3834 -11.7428 33.9631 16.8957 -0.0000 28.3502 1.4365 -10.4988 7.8360 32.8623 0.0000 -24.3270 -8.4181 3.2515 2.7776 0.3741 -0.0000 0.0000 -8.4956 16.1378 -13.2024 4.0057 -0.0000 0.0000 -10.0396 -8.8690 -0.2453 3.0575 -0.0000 0.0000 -9.4785 -0.9109 -3.9630 0.6229 -0.0000 0.0000
 0.2467 32.8743 -2.8984 13.0550 2.4043 -1.7571 -12.0874 5.1924 1.6062 -11.7476 -7.7504 8.4479 13.6453 21.6781 28.0649 -30.7998 -7.8581 -30.4598 -13.4169 -0.0000 7.2702 1.4497 30.1281 -2.8864 33.1476 -0.0000 26.2537 -21.9187 -7.3934 -39.6053 -3.3813 -11.7119 33.9437 16.8704 -0.0000 28.2901 1.4240 -10.4967 7.7703 32.8623 0.0000 -24.3270 -8.4097 3.2445 2.7715 0.3639 -0.0000 -0.0000 -8.4965 16.1392 -13.1954 4.0255 -0.0000 0.0000 -10.0340 -8.8463 -0.2553 3.0691 -0.0000 -0.0000 -9.5020 -0.9639 -4.0001 0.6068 -0.0000 -0.0000
 0.2464 32.8738 -2.8956 13.0586 2.4197 -1.7630 -12.0970 5.1772 1.6044 -11.7798 -7.7385 8.4450 13.6668 21.7136 28.0636 -30.8480 -7.8311 -30.4811 -13.4460 -0.0000 7.2789 1.4846 30.1964 -2.9497 33.1476 -0.0000 26.2537 -21.9251 -7.3740 -39.6300 -3.3794 -11.7647 33.9640 16.9014 -0.0000 28.2938 1.4340 -10.5135 7.8119 32.8623 0.0000 -24.3270 -8.4032 3.2243 2.7760 0.3466 -0.0000 -0.0000 -8.5191 16.1316 -13.1392 4.0719 -0.0000 -0.0000 -10.0345 -8.8914 -0.2486 3.0646 -0.0000 0.0000 -9.4928 -0.9138 -3.9815 0.5884 -0.0000 -0.0000
 0.2475 32.8739 -2.8928 13.0596 2.4257 -1.7686 -12.1093 5.1690 1.6153 -11.7964 -7.7316 8.4211 13.6605 21.6956 28.0459 -30.7703 -7.8370 -30.4490 -13.4395 -0.0000 7.2458 1.4887 30.2140 -2.9563 33.1476 -0.0000 26.2537 -21.9206 -7.3699 -39.6028 -3.3789 -11.7376 33.9104 16.8749 -0.0000 28.2384 1.4163 -10.4764 7.7431 32.8623 0.0000 -24.3270 -8.3842 3.1716 2.7774 0.3223 -0.0000 -0.0000 -8.4910 16.1873 -13.1804 4.0170 -0.0000 0.0000 -10.0263 -8.8885 -0.2476 3.0570 0.0000 -0.0000 -9.4911 -0.9086 -3.9403 0.6223 0.0000 0.0000
 0.2481 32.8736 -2.8905 13.0615 2.4347 -1.7657 -12.1193 5.1686 1.6068 -11.8093 -7.7305 8.4229 13.7020 21.7213 28.0170 -30.7913 -7.8648 -30.4348 -13.4061 -0.0000 7.2524 1.4784 30.1618 -2.9405 33.1476 -0.0000 26.2537 -21.9012 -7.3867 -39.6002 -3.4244 -11.7548 33.9014 16.8806 -0.0000 28.2311 1.4211 -10.5104 7.7445 32.8623 0.0000 -24.3270 -8.3775 3.1317 2.7734 0.3181 -0.0000 -0.0000 -8.4844 16.2083 -13.1867 3.9835 0.0000 0.0000 -10.0306 -8.8976 -0.2529 3.0717 0.0000 0.0000 -9.5051 -0.9190 -3.9499 0.6109 -0.0000 -0.0000
 0.2483 32.8732 -2.8891 13.0640 2.4418 -1.7672 -12.1239 5.1771 1.6043 -11.8319 -7.7293 8.4128 13.6988 21.7220 28.0098 -30.7828 -7.8823 -30.4311 -13.3845 -0.0000 7.2712 1.4838 30.1565 -2.9516 33.1476 -0.0000 26.2537 -21.9161 -7.3767 -39.5879 -3.3907 -11.7577 33.8658 16.8797 -0.0000 28.2259 1.4198 -10.4573 7.7758 32.8623 0.0000 -24.3270 -8.3772 3.1179 2.7729 0.3158 -0.0000 0.0000 -8.4959 16.2224 -13.1942 4.0033 -0.0000 0.0000 -10.0293 -8.9021 -0.2525 3.0735 0.0000 0.0000 -9.5185 -0.9278 -3.9256 0.6388 -0.0000 0.0000
 0.2478 32.8725 -2.8870 13.0700 2.4513 -1.7697 -12.1368 5.1783 1.5981 -11.8432 -7.7260 8.4296 13.7046 21.7294 28.0145 -30.7950 -7.8655 -30.4397 -13.3962 -0.0000 7.2853 1.5110 30.1831 -3.0033 33.1476 -0.0000 26.2537 -21.9123 -7.3909 -39.5861 -3.3879 -11.7438 33.8563 16.8719 -0.0000 28.2123 1.4221 -10.4805 7.7714 32.8623 0.0000 -24.3270 -8.3704 3.0703 2.7740 0.3015 -0.0000 0.0000 -8.5010 16.2648 -13.2011 4.0138 0.0000 -0.0000 -10.0332 -8.9106 -0.2510 3.0827 0.0000 -0.0000 -9.5301 -0.9220 -3.9580 0.6127 -0.0000 0.0000
 0.2480 32.8722 -2.8849 13.0689 2.4588 -1.7722 -12.1438 5.1877 1.5916 -11.8403 -7.7347 8.4556 13.7445 21.7478 28.0116 -30.8346 -7.8477 -30.4486 -13.4191 -0.0000 7.2557 1.5380 30.1932 -3.0561 33.1476 -0.0000 26.2537 -21.9136 -7.3900 -39.5732 -3.3896 -11.7574 33.8340 16.8708 -0.0000 28.2376 1.4273 -10.4867 7.7952 32.8623 0.0000 -24.3270 -8.3623 3.0187 2.7754 0.2971 0.0000 -0.0000 -8.5281 16.2998 -13.1208 4.0734 0.0000 0.0000 -10.0335 -8.9122 -0.2516 3.0930 -0.0000 0.0000 -9.5428 -0.9279 -3.9244 0.6213 0.0000 -0.0000
 0.2481 32.8715 -2.8824 13.0646 2.4648 -1.7730 -12.1423 5.1999 1.5869 -11.8634 -7.7362 8.4505 13.7331 21.7383 28.0146 -30.8489 -7.8217 -30.4545 -13.4240 -0.0000 7.2561 1.5563 30.2089 -3.0909 33.1476 -0.0000 26.2537 -21.9211 -7.3923 -39.5768 -3.3711 -11.7572 33.8275 16.8684 -0.0000 28.2341 1.4281 -10.4697 7.8119 32.8623 0.0000 -24.3270 -8.3545 2.9972 2.7740 0.3041 -0.0000 -0.0000 -8.5147 16.3241 -13.1726 4.0316 -0.0000 0.0000 -10.0267 -8.9061 -0.2504 3.1031 0.0000 0.0000 -9.5606 -0.9440 -3.9722 0.6124 0.0000 0.0000
 0.2479 32.8712 -2.8803 13.0608 2.4734 -1.7740 -12.1459 5.1939 1.5820 -11.8492 -7.7103 8.4648 13.7463 21.7534 28.0100 -30.8709 -7.8086 -30.4609 -13.4232 -0.0000 7.2523 1.5832 30.2328 -3.1419 33.1476 -0.0000 26.2537 -21.9024 -7.3815 -39.5708 -3.3691 -11.7722 33.8219 16.8624 -0.0000 28.2437 1.4262 -10.4488 7.8167 32.8623 0.0000 -24.3270 -8.3445 2.9575 2.7749 0.2971 -0.0000 0.0000 -8.5199 16.3580 -13.1842 4.0361 0.0000 -0.0000 -10.0257 -8.9081 -0.2493 3.1176 0.0000 -0.0000 -9.5576 -0.9588 -4.0165 0.5482 0.0000 0.0000
 0.2485 32.8706 -2.8781 13.0605 2.4786 -1.7749 -12.1535 5.2035 1.5788 -11.8317 -7.7337 8.4870 13.7544 21.7577 28.0138 -30.8870 -7.7866 -30.4797 -13.4340 -0.0000 7.2525 1.5561 30.2178 -3.0896 33.1476 -0.0000 26.2537 -21.9048 -7.3728 -39.6040 -3.3671 -11.8134 33.8560 16.8839 -0.0000 28.2738 1.4473 -10.4896 7.9012 32.8623 0.0000 -24.3270 -8.3350 2.9070 2.7739 0.2929 0.0000 0.0000 -8.5269 16.4012 -13.1709 4.0368 0.0000 0.0000 -10.0316 -8.9145 -0.2535 3.1430 -0.0000 -0.0000 -9.5927 -0.9621 -3.9472 0.6045 0.0000 -0.0000
 0.2487 32.8705 -2.8757 13.0559 2.4802 -1.7682 -12.1578 5.2079 1.5630 -11.8074 -7.7249 8.5226 13.7669 21.7636 28.0040 -30.8984 -7.7825 -30.4656 -13.4238 -0.0000 7.2744 1.6049 30.2329 -3.1850 33.1476 -0.0000 26.2537 -21.9003 -7.3648 -39.5675 -3.3450 -11.7820 33.8186 16.8561 -0.0000 28.2296 1.4346 -10.4850 7.8359 32.8623 0.0000 -24.3270 -8.3215 2.8574 2.7682 0.2898 -0.0000 -0.0000 -8.5224 16.4338 -13.1401 3.9861 0.0000 -0.0000 -10.0306 -8.9012 -0.2597 3.1556 0.0000 0.0000 -9.5889 -0.9878 -3.9832 0.5181 0.0000 -0.0000
